<svg xmlns="http://www.w3.org/2000/svg" width="200" height="202"><svg width="200" height="202" viewBox="0 0 200 202" fill="none" xmlns="http://www.w3.org/2000/svg"><circle cx="100" cy="100" r="100" fill="#D41443"/><path d="m100 35.5.197-5.997-.197-.006-.197.006L100 35.5Zm64.985 77.684-5.991.313 5.991-.313Zm-.001 1.63 5.99.341-5.99-.341Zm-54.448 36.582-3.453 4.907 3.453-4.907ZM130.5 185c6.489 0 14.753-1.768 21.243-8.257l-8.486-8.486c-3.51 3.511-8.246 4.743-12.757 4.743v12Zm21.243-8.257c5.639-5.64 7.133-12.904 7.522-20.847.373-7.6-.265-18.053-.265-29.896h-12c0 13.157.642 21.924.28 29.309-.346 7.042-1.602 10.528-4.023 12.948l8.486 8.486ZM124.5 129v12.483h12V129h-12ZM111 140.731V128.5H99v12.231h12Zm48-39.231c0-5.438.506-13.558-.146-21.373-.668-8.021-2.581-16.829-7.921-24.542l-9.866 6.83c3.66 5.287 5.247 11.73 5.829 18.708.599 7.186.104 13.815.104 20.377h12ZM63.5 179v23h12v-23h-12Zm6 6H130.5v-12H69.5v12Zm55-6v23h12v-23h-12Zm-10.143-32.252-.368-.259-6.906 9.814.368.259 6.906-9.814ZM153 120h-19.5v12H153v-12Zm-50.5 0H47v12h55.5v-12ZM47 120c-1.804 0-2.88-.358-3.508-.687a3.721 3.721 0 0 1-1.398-1.254c-.779-1.152-1.036-2.681-1.087-3.585l-11.98.681c.101 1.795.58 5.86 3.127 9.626C34.967 128.941 39.814 132 47 132v-12Zm-5.993-6.503c.05-.973.313-2.662 1.14-3.945.366-.566.816-1.018 1.427-1.352.61-.334 1.655-.7 3.426-.7v-12c-7.326 0-12.18 3.272-14.938 7.55-2.491 3.865-2.945 8.018-3.04 9.821l11.985.626ZM153 107.5c1.771 0 2.816.366 3.426.7.611.334 1.061.786 1.426 1.352.828 1.283 1.091 2.972 1.142 3.945l11.983-.626c-.094-1.803-.548-5.956-3.039-9.821-2.758-4.278-7.612-7.55-14.938-7.55v12Zm5.993 6.974c-.051.904-.308 2.433-1.087 3.585a3.72 3.72 0 0 1-1.398 1.254c-.629.329-1.704.687-3.508.687v12c7.186 0 12.033-3.059 14.846-7.219 2.547-3.766 3.026-7.831 3.128-9.626l-11.981-.681ZM100 83c9.414 0 32.046-1.009 50.306-19.821l-8.611-8.358C126.954 70.01 108.586 71 100 71v12Zm46-24c4.941-3.404 4.94-3.406 4.938-3.408l-.004-.006-.008-.011a5.543 5.543 0 0 0-.08-.114l-.188-.261a33.737 33.737 0 0 0-.66-.868 52.132 52.132 0 0 0-2.455-2.897 67.633 67.633 0 0 0-9.512-8.615c-8.416-6.294-21.072-12.767-37.834-13.317l-.394 11.994c13.739.45 24.082 5.727 31.041 10.933a55.725 55.725 0 0 1 7.816 7.072 40.893 40.893 0 0 1 1.891 2.229 21.64 21.64 0 0 1 .521.691l-.004-.005-.004-.006-.002-.003c-.002-.002-.003-.004 4.938-3.408Zm-96.305 4.179C67.954 81.99 90.585 83 100 83V71c-8.586 0-26.954-.991-41.694-16.179l-8.611 8.358Zm50.108-33.676c-16.761.55-29.418 7.023-37.834 13.317a67.682 67.682 0 0 0-9.512 8.615 52.48 52.48 0 0 0-2.455 2.897 34.554 34.554 0 0 0-.907 1.213l-.021.03-.008.011-.004.006c-.002.002-.003.004 4.938 3.408s4.94 3.406 4.938 3.408l-.002.003-.004.006-.004.005.01-.012a22.45 22.45 0 0 1 .512-.679 40.616 40.616 0 0 1 1.89-2.229 55.68 55.68 0 0 1 7.816-7.072c6.96-5.206 17.302-10.483 31.041-10.933l-.394-11.994ZM53 101.5c0-6.562-.495-13.191.104-20.377.582-6.979 2.17-13.421 5.83-18.708l-9.867-6.83c-5.34 7.713-7.253 16.52-7.921 24.542C40.495 87.94 41 96.062 41 101.5h12ZM41 126c0 11.843-.639 22.296-.266 29.895.39 7.943 1.883 15.207 7.523 20.848l8.486-8.486c-2.422-2.421-3.678-5.907-4.024-12.949-.361-7.385.281-16.151.281-29.308H41Zm7.257 50.743C54.747 183.232 63.011 185 69.5 185v-12c-4.511 0-9.247-1.232-12.757-4.743l-8.486 8.486ZM47 107.5h53v-12H47v12Zm53 0h53v-12h-53v12ZM69.5 185h61v-12h-61v12Zm89.494-71.503c.017.341.017.666-.001.977l11.981.681c.044-.776.042-1.538.003-2.284l-11.983.626Zm-117.987.977a8.963 8.963 0 0 1 0-.977l-11.984-.626a20.95 20.95 0 0 0 .003 2.284l11.98-.681ZM111 128.5a8.5 8.5 0 0 0-8.5-8.5v12a3.5 3.5 0 0 1-3.5-3.5h12Zm-12 12.231a19.042 19.042 0 0 0 8.083 15.572l6.906-9.814a7.042 7.042 0 0 1-2.989-5.758H99Zm8.451 15.831a18.44 18.44 0 0 0 22.056-.623l-7.449-9.408a6.44 6.44 0 0 1-7.701.217l-6.906 9.814Zm17.049-15.079a6.439 6.439 0 0 1-2.442 5.048l7.449 9.408a18.438 18.438 0 0 0 6.993-14.456h-12Zm12-12.483a3 3 0 0 1-3 3v-12a9 9 0 0 0-9 9h12Z" fill="#fff"/></svg><style>@media (prefers-color-scheme:light){:root{filter:none}}</style></svg>