<svg aria-hidden="true" style="width:0;height:0;position:absolute" xmlns="http://www.w3.org/2000/svg" overflow="hidden"><defs><symbol id="arrow-right" viewBox="0 0 24 24"><path d="M11.293 5.707 16.586 11H5a1 1 0 0 0 0 2h11.586l-5.293 5.293a.999.999 0 1 0 1.414 1.414l7-7a1.006 1.006 0 0 0 0-1.414l-7-7a.999.999 0 1 0-1.414 1.414z"/></symbol><symbol id="icon-close" viewBox="0 0 32 32"><path d="m26.667 7.303-1.97-1.97-7.808 7.808-7.808-7.808-1.97 1.97 7.808 7.808-7.808 7.808 1.97 1.97 7.808-7.808 7.808 7.808 1.97-1.97-7.808-7.808 7.808-7.808z"/></symbol><symbol id="chevron-right"><path d="M9.16 4.52c.42.4 4.5 4.7 4.5 4.7a1.1 1.1 0 0 1 0 1.57s-4.08 4.29-4.5 4.7c-.41.4-1.17.43-1.61 0-.45-.44-.48-1.05 0-1.58L11.3 10 7.54 6.1c-.48-.54-.45-1.15 0-1.58s1.2-.41 1.61 0z"/></symbol><symbol id="menu" viewBox="0 0 20 20"><path d="M0 3h20v2H0V3zm0 6h20v2H0V9zm0 6h20v2H0v-2z"/></symbol><symbol id="close" viewBox="0 0 20 20"><path d="M10 8.59 2.93 1.52l-1.41 1.4L8.59 10l-7.07 7.07 1.4 1.41L10 11.41l7.07 7.07 1.41-1.4L11.41 10l7.07-7.07-1.4-1.42L10 8.6z"/></symbol><symbol id="review-points" viewBox="0 0 256 32"><path d="M144 16a16 16 0 1 1-32 0 16 16 0 0 1 32 0zM32 16a16 16 0 1 1-32 0 16 16 0 0 1 32 0zm224 0a16 16 0 1 1-32 0 16 16 0 0 1 32 0z"/></symbol><symbol id="points" viewBox="0 0 139 32"><path d="M85.33 16a16 16 0 1 1-32 0 16 16 0 0 1 32 0zM32 16a16 16 0 1 1-32 0 16 16 0 0 1 32 0zm106.67 0a16 16 0 1 1-32 0 16 16 0 0 1 32 0z"/></symbol><symbol id="rev-quots" viewBox="0 0 43 32"><path d="M32.01 0c1.93 0 3.75.52 5.47 1.56s3.1 2.54 4.18 4.49c1.03 1.95 1.54 4.25 1.54 6.9s-.64 5.22-1.93 7.73c-.43.91-1.2 2.08-2.31 3.52a63.37 63.37 0 0 1-3.22 3.7L31.7 32l-2.89-4.81a22.03 22.03 0 0 0 5.34-4.69c1.54-1.82 2.31-3.49 2.31-5 0-.78-.17-1.41-.51-1.89a8.36 8.36 0 0 1-5.02 1.63 6.6 6.6 0 0 1-3.8-1.24 8.56 8.56 0 0 1-2.95-3.12 7.37 7.37 0 0 1-1.16-3.9c0-1.52.45-2.97 1.35-4.36.86-1.39 2-2.52 3.41-3.38A8.13 8.13 0 0 1 32.02 0zM8.94 0c1.93 0 3.75.52 5.46 1.56s3.1 2.54 4.18 4.49a14.58 14.58 0 0 1 1.54 6.9c0 1.86-.23 3.53-.7 5a17.3 17.3 0 0 1-2.45 4.75 36.67 36.67 0 0 1-3.15 3.9c-.98 1.09-2.7 2.89-5.14 5.4l-2.9-4.81a22.03 22.03 0 0 0 5.34-4.69c1.55-1.82 2.32-3.49 2.32-5 0-.78-.17-1.41-.52-1.9a8.36 8.36 0 0 1-5.01 1.64A6.6 6.6 0 0 1 4.1 16a8.56 8.56 0 0 1-2.95-3.12A7.37 7.37 0 0 1 0 8.98C0 7.46.43 6 1.3 4.62S3.29 2.1 4.7 1.24A8.13 8.13 0 0 1 8.94 0z"/></symbol><symbol id="home" viewBox="0 0 32 32"><path fill="var(--color5, #d31342)" d="M31.6 15.43c.58-.6.52-1.5-.13-2.03L17.17 1.72a1.88 1.88 0 0 0-2.32.03L.5 14.02a1.35 1.35 0 0 0-.07 2.03l.36.35c.6.58 1.56.65 2.15.16l1.08-.9v13.12c0 .8.7 1.45 1.56 1.45h5.59c.86 0 1.56-.65 1.56-1.45V19.6h7.14v9.18c-.02.8.6 1.45 1.46 1.45h5.93c.86 0 1.56-.65 1.56-1.45V15.85l.66.54c.36.3 1.13.06 1.71-.54l.41-.42z"/></symbol><symbol id="arrow-right_1" viewBox="0 0 32 32"><path d="M16.222 3.867a2.575 2.575 0 0 0 0 3.645l5.911 5.911H2.578a2.579 2.579 0 0 0 0 5.156h19.555l-5.911 5.911a2.575 2.575 0 0 0 0 3.645 2.573 2.573 0 0 0 3.644 0l12.133-12.133L19.866 3.869a2.575 2.575 0 0 0-3.645 0z"/></symbol><symbol id="advantage-1" viewBox="0 0 32 32"><path fill="#fea5b9" d="M15.467 13.547H23.2c.267 0 .587 0 .8.267.267.267.32.587.213.96-.32 1.813-.693 3.68-1.067 5.493a290.393 290.393 0 0 0-1.227 6.613c-.107.587-.213 1.227-.32 1.813-.107.427-.427.693-.853.693h-10.56c-.427 0-.8-.267-.853-.693-.267-1.333-.533-2.613-.747-3.947-.32-1.76-.693-3.573-1.013-5.333-.267-1.547-.587-3.093-.853-4.64-.16-.747.213-1.173 1.013-1.173 2.56-.107 5.12-.053 7.733-.053zm-5.92 6.773c0 .16.053.213.053.32l1.28 6.72c.053.16.107.213.267.213h8.693c.16 0 .267-.053.267-.213.267-1.547.587-3.04.853-4.587.16-.8.32-1.6.48-2.453-1.76 1.493-3.733 2.08-5.92 2.08-2.24 0-4.213-.587-5.973-2.08zm-.854-5.013v.16c0 .16.053.267.053.427.48 2.027 1.76 3.413 3.627 4.16 1.973.8 4 .8 5.973.053 1.76-.64 2.987-1.867 3.573-3.68.107-.373.16-.747.267-1.12H8.693zM8.8 5.76c-.16-.373-.373-.747-.48-1.067a4.147 4.147 0 0 1-.16-1.173c0-.48.373-.853.853-.853H21.92c.48 0 .853.373.853.853 0 .693-.107 1.387-.533 1.973a.78.78 0 0 0-.107.16c.213.32.48.587.64.907.427.8.32 1.813-.267 2.507s-1.493.96-2.347.747c-.427-.107-.747-.373-1.067-.693-.107-.107-.16-.107-.32-.053-.32.16-.587.267-.907.373-.107.053-.16.107-.16.267 0 .533 0 1.013-.16 1.493-.427 1.28-1.973 1.92-3.147 1.28-.853-.48-1.227-1.173-1.28-2.133v-.64c0-.16-.053-.213-.16-.267-.32-.107-.587-.267-.907-.373-.107-.053-.213-.053-.32.053-.32.32-.693.587-1.12.693-1.44.427-2.933-.853-2.827-2.347.053-.64.32-1.12.693-1.547.213-.053.267-.107.32-.16zm12.053-1.333H10.08c.213.32.373.587.533.853.267.48.267.853-.107 1.227a8.248 8.248 0 0 0-.64.693c-.16.16-.213.32-.16.533.053.427.533.587.853.32.267-.213.48-.48.693-.693.373-.373.747-.427 1.12-.16.587.373 1.227.64 1.867.853.533.16.693.427.747 1.013v1.333c0 .32.16.533.373.64.373.107.693-.16.693-.587V9.119c0-.64.16-.907.8-1.067s1.227-.427 1.813-.8c.427-.267.8-.213 1.173.16.213.213.427.427.587.64.16.16.32.213.48.213.213-.053.373-.16.427-.32.107-.213.053-.427-.107-.587-.213-.267-.48-.48-.693-.747a1.653 1.653 0 0 1-.267-.373c-.107-.32-.053-.587.107-.853.107-.373.32-.64.48-.96z"/></symbol><symbol id="advantage-2" viewBox="0 0 32 32"><path fill="#fea5b9" d="M20.8 29.493H7.413l-.053-.053c-.32-.16-.48-.427-.533-.8a14.707 14.707 0 0 1-.267-1.493c-.267-1.44-.587-2.933-.853-4.373-.16-.907-.373-1.813-.533-2.72-.32-1.707-.64-3.36-.96-5.067l-.48-2.4c-.053-.16-.053-.373-.053-.533 0-.32.16-.587.427-.747.107-.053.107-.107.107-.213s0-.213-.053-.32c0-.48.053-.907.267-1.333.16-.373.427-.64.693-.907.533-.533 1.173-.853 1.92-1.013.213-.053.213-.053.107-.213-.107-.32-.267-.64-.373-.96-.267-.8-.32-1.653-.213-2.507.053-.267.107-.48.267-.693.267-.267.587-.427 1.013-.16.373.213.533.48.48.907 0 .16-.053.373-.053.533-.053.64.053 1.227.32 1.813 0 .053.053.053.053.107.053.053.053.053.107 0 .053 0 .053-.053.107-.053.16-.16.32-.32.48-.427.427-.373.907-.693 1.493-.853.587-.213 1.12-.213 1.707-.053.533.16 1.013.427 1.44.853.16.16.373.373.533.587.107.107.16.16.32.16h.64c.427 0 .8.053 1.173.213.053 0 .107.053.213.053.053 0 .107 0 .107-.053s.053-.16.053-.213c.053-.32.107-.587.213-.907.213-.8.587-1.493 1.12-2.133.16-.16.32-.32.48-.427.107-.053.267-.107.373-.16.213 0 .427.107.587.213.16.053.267.32.267.587s-.107.48-.267.64l-.213.213c-.48.587-.693 1.227-.853 1.973v.053h.053c.053 0 .107 0 .16-.053.373-.107.693-.16 1.067-.213.587 0 1.173.053 1.707.32.587.267 1.067.64 1.333 1.227.373.693.533 1.387.48 2.133 0 .32-.053.587-.053.907 0 .213 0 .213.213.267.053 0 .107 0 .16.053.16.053.267.107.373.213.213.213.32.533.267.8-.107.693-.267 1.333-.373 2.027-.32 1.707-.64 3.413-1.013 5.12l-.16.8c-.053.16 0 .16.107.213.16.053.373.107.533.16h.107c.053 0 .107 0 .107-.053s.053-.16.053-.213c.107-.64.32-1.28.587-1.867.213-.427.48-.8.853-1.12a.882.882 0 0 1 .8-.267c.533.107.907.693.64 1.227-.053.107-.16.213-.267.32-.107.16-.213.267-.32.373-.32.427-.48.96-.587 1.44v.107h.16c.427-.16.907-.213 1.387-.16.373 0 .693.053 1.013.213.8.267 1.387.8 1.707 1.6.32.747.373 1.547.267 2.347-.053.693-.267 1.387-.587 2.027s-.693 1.227-1.227 1.707c-.427.373-.907.64-1.493.8s-1.12.16-1.707.053c-.267-.053-.48-.053-.747-.053-.267.053-.533 0-.8.053-.48.053-.96 0-1.387-.16-.267-.107-.48-.16-.747-.267-.16-.053-.16-.053-.213.107a.68.68 0 0 1-.373.48c.16.107.053.16 0 .213zm-6.613-16.48h-8.32c-.053 0-.107.053-.107.107v.16c.053.267.107.587.16.853.213.747.533 1.44.96 2.133.587.853 1.333 1.493 2.187 2.027.64.373 1.28.64 1.973.853.8.267 1.547.373 2.4.427.693.053 1.333 0 2.027-.053 1.173-.16 2.293-.427 3.36-1.013.747-.427 1.387-.907 1.973-1.547.373-.427.693-.907.96-1.387a6.253 6.253 0 0 0 .693-2.133c0-.107.053-.213.053-.267 0-.107 0-.107-.107-.107h-.213c-2.613-.053-5.28-.053-8-.053zM6.72 18.667c-.053.053-.053.107 0 .16.107.64.267 1.28.373 1.92.16.907.373 1.813.533 2.72.267 1.333.533 2.667.747 4 .053.267 0 .267.32.267H19.68c.107 0 .107 0 .16-.107.053-.16.053-.267.107-.427.053-.213 0-.373-.107-.533-.107-.213-.16-.427-.267-.64-.267-.8-.427-1.6-.373-2.453.053-.427.107-.853.267-1.28.213-.533.533-.96 1.067-1.28.16-.107.32-.16.48-.267.107-.053.16-.107.16-.213.107-.533.213-1.013.32-1.547v-.107h-.053c-.053.053-.107.107-.16.107-.64.533-1.387.96-2.133 1.333-1.44.64-2.933.96-4.48 1.013-.693 0-1.44 0-2.133-.107a13.843 13.843 0 0 1-2.133-.48 9.661 9.661 0 0 1-3.52-2.027c-.053 0-.107 0-.16-.053zM28.533 24v-.213c0-.32-.053-.587-.16-.907a.88.88 0 0 0-.533-.533c-.107-.053-.213-.053-.32-.107-.427-.107-.853-.053-1.28.16-.267.16-.48.32-.64.587-.107.16-.213.267-.32.373-.32.213-.64.267-.96 0a1.24 1.24 0 0 1-.373-.373c-.213-.32-.48-.587-.907-.693a2.636 2.636 0 0 0-1.12-.053c-.427.053-.693.32-.8.693-.16.48-.213 1.013-.16 1.493.107.8.427 1.493.853 2.133.32.427.747.747 1.28.853.373.107.8.053 1.173-.053.267-.107.533-.107.853 0 .16.053.373.107.533.107.693.053 1.333-.16 1.76-.693.747-.747 1.12-1.707 1.12-2.773zM13.28 11.2c0 .053 0 .053 0 0h.427c.16 0 .213-.053.267-.213.053-.213.053-.427.107-.64.053-.533-.107-1.067-.213-1.6-.16-.533-.373-1.013-.747-1.44-.213-.213-.373-.427-.64-.587a1.072 1.072 0 0 0-.587-.16c-.533.053-.96.267-1.333.64-.32.373-.48.8-.48 1.333 0 .107 0 .213-.053.267-.107.427-.427.747-.853.693-.16 0-.267-.053-.427-.107a2.133 2.133 0 0 0-.8-.16c-.747 0-1.28.32-1.707.907-.16.267-.213.587-.16.853.053.107.107.213.213.213h6.987zm2.187-3.04c0 .053 0 .107.053.16.053.16.107.32.107.48.16.693.213 1.387.107 2.08 0 .053 0 .107-.053.213 0 .107 0 .107.107.107h5.707c.16 0 .16 0 .213-.16.053-.267.053-.48.107-.747.053-.48 0-.907-.213-1.387a1.007 1.007 0 0 0-.64-.587c-.16-.053-.32-.107-.48-.107-.693-.107-1.28.053-1.76.587-.107.107-.16.213-.267.32s-.213.267-.32.32c-.32.213-.693.213-.96-.053l-.32-.32c-.32-.427-.747-.747-1.28-.853.053-.053 0-.053-.107-.053z"/></symbol><symbol id="advantage-3" viewBox="0 0 32 32"><path fill="#fea5b9" d="M13.653 29.333v-7.467c0-.213-.053-.32-.213-.427a41.883 41.883 0 0 1-4.587-3.52c-1.387-1.28-2.667-2.72-3.573-4.427-1.173-2.293-1.387-4.64-.373-7.04.8-1.867 2.187-3.2 4.267-3.627 2.027-.48 3.84.053 5.387 1.493.32.267.587.587.853.907.373.427.853.427 1.227 0 .533-.693 1.173-1.333 1.973-1.76 1.227-.693 2.507-.96 3.84-.693 2.507.427 4.107 1.973 4.907 4.32.747 2.24.48 4.373-.64 6.453-.907 1.707-2.133 3.093-3.573 4.373-1.44 1.333-2.987 2.453-4.587 3.52-.16.107-.213.213-.213.427v7.467h-4.693zM12.16 11.947c-.053 0-.053 0 0 0-.053.267-.053.533-.053.747 0 .533.32.907.8.907.427 0 .747-.373.747-.853v-1.493c.053-1.173.853-2.133 1.92-2.293 1.44-.213 2.72.8 2.773 2.293v1.547c0 .373.16.64.48.747.533.213 1.013-.16 1.067-.747v-1.547c.053-1.013.48-1.707 1.387-2.133.907-.373 1.707-.267 2.453.373.533.427.747 1.013.8 1.707.053.48.32.8.747.8.213 0 .373-.053.427-.267.107-.427.267-.907.32-1.333.213-1.867-.16-3.52-1.493-4.907a4.203 4.203 0 0 0-5.333-.587c-.48.32-.907.693-1.227 1.173-1.013 1.387-2.987 1.387-3.947 0-.053-.107-.107-.16-.213-.267-.533-.587-1.12-1.067-1.867-1.333-2.08-.693-4.32.16-5.333 2.133-.853 1.653-.907 3.307-.373 5.067.107.32.267.373.587.32.373-.107.533-.373.587-.853.107-1.173.96-2.08 2.133-2.24 1.12-.107 2.187.587 2.453 1.707.107.48.107.907.16 1.333zM7.2 13.6c.587.907 1.28 1.707 2.08 2.507 1.6 1.6 3.467 2.987 5.333 4.213.907.587 1.867.587 2.773 0l1.12-.8c1.813-1.28 3.52-2.613 5.013-4.32.48-.533.907-1.12 1.333-1.653-.053-.053-.053-.053-.107-.053-1.12-.373-1.707-1.12-1.76-2.293 0-.32-.213-.533-.48-.693-.533-.213-1.013.16-1.067.747v1.6c-.053 1.28-1.067 2.293-2.347 2.293s-2.293-1.013-2.347-2.293v-1.547c0-.16-.053-.373-.107-.533-.16-.267-.533-.427-.853-.32s-.587.373-.587.747v1.547c0 1.173-.853 2.133-1.92 2.293-1.493.267-2.72-.8-2.773-2.293v-1.547c0-.32-.16-.587-.427-.693s-.533-.107-.8.107c-.213.16-.267.427-.267.693 0 .64-.267 1.227-.8 1.653-.32.32-.693.48-1.013.64zm8.053 8.747v5.387h1.493v-5.387h-1.493z"/></symbol><symbol id="rev-3-dots" viewBox="0 0 256 32"><path d="M144 16c0 8.837-7.163 16-16 16s-16-7.163-16-16 7.163-16 16-16 16 7.163 16 16zM32 16c0 8.837-7.163 16-16 16S0 24.837 0 16 7.163 0 16 0s16 7.163 16 16zM256 16c0 8.837-7.163 16-16 16s-16-7.163-16-16 7.163-16 16-16 16 7.163 16 16z"/></symbol><symbol id="rev-dot" viewBox="0 0 32 32"><path d="M32 16c0 8.837-7.163 16-16 16S0 24.837 0 16 7.163 0 16 0s16 7.163 16 16z"/></symbol><symbol id="rev-home" viewBox="0 0 32 32"><path d="M31.599 16.766c.58-.595.524-1.507-.125-2.037L17.173 3.056c-.649-.53-1.69-.518-2.325.025L.498 15.351c-.635.543-.667 1.454-.069 2.034l.36.35c.597.579 1.562.648 2.154.154l1.072-.896v13.116c0 .805.699 1.456 1.561 1.456h5.594c.862 0 1.561-.651 1.561-1.456v-9.176h7.135v9.176c-.012.804.604 1.455 1.466 1.455h5.928c.862 0 1.561-.651 1.561-1.456v-12.93l.662.542c.366.3 1.131.059 1.711-.536l.407-.417z"/></symbol><symbol id="icon-facebook" viewBox="0 0 16 32"><path d="M14.266 15.97H10.09v15.39H3.763V15.97H.754v-5.409h3.009v-3.5c0-2.503 1.182-6.422 6.384-6.422l4.687.02v5.25h-3.401c-.558 0-1.342.28-1.342 1.474v3.183h4.729l-.553 5.403z"/></symbol><symbol id="icon-telegram" viewBox="0 0 40 32"><path d="m16.205 20.751-.635 8.339c.909 0 1.302-.364 1.774-.802l4.261-3.801 8.829 6.035c1.619.842 2.76.399 3.197-1.39l5.797-25.346c.514-2.234-.866-3.108-2.443-2.56L2.92 13.398c-2.325.842-2.29 2.052-.395 2.6l8.709 2.528L31.463 6.712c.952-.588 1.818-.263 1.106.326L16.205 20.751z"/></symbol><symbol id="icon-git" viewBox="0 0 32 32"><path fill="#fff" style="fill:var(--color1,#fff)" d="M16 .941C7.729.941.941 7.729.941 16c0 7.058 4.953 13.47 11.529 15.059v-4.982c-.652.143-1.251.147-1.915-.049-.89-.263-1.613-.855-2.15-1.759-.342-.577-.949-1.203-1.581-1.157l-.155-1.758c1.368-.117 2.551.833 3.254 2.014.312.525.671.832 1.132.968.446.131.924.068 1.481-.129.14-1.116.651-1.534 1.037-2.122-3.922-.585-5.486-2.667-6.106-4.309-.822-2.181-.381-4.905 1.073-6.627.028-.034.079-.121.06-.183-.667-2.014.146-3.679.176-3.856.769.228.894-.229 3.342 1.258l.423.254c.177.105.121.045.298.032a12.77 12.77 0 0 1 3.16-.445 12.84 12.84 0 0 1 3.204.456l.137.014c-.012-.002.037-.009.12-.058 3.057-1.852 2.947-1.247 3.767-1.513.03.177.831 1.87.172 3.858-.089.274 2.65 2.782 1.132 6.809-.62 1.643-2.184 3.724-6.106 4.309.503.766 1.107 1.175 1.104 2.756v6.219C26.106 29.47 31.058 23.058 31.058 16c0-8.271-6.787-15.059-15.059-15.059z"/></symbol></defs></svg>