<svg aria-hidden="true" style="position:absolute;width:0;height:0" xmlns="http://www.w3.org/2000/svg" overflow="hidden">
  <defs>
    <symbol id="arrow-right" viewBox="0 0 24 24">
      <path d="M11.293 5.707l5.293 5.293h-11.586c-0.552 0-1 0.448-1 1s0.448 1 1 1h11.586l-5.293 5.293c-0.391 0.391-0.391 1.024 0 1.414s1.024 0.391 1.414 0l7-7c0.092-0.092 0.166-0.202 0.217-0.324 0.101-0.245 0.101-0.521 0-0.766-0.049-0.118-0.121-0.228-0.217-0.324l-7-7c-0.391-0.391-1.024-0.391-1.414 0s-0.391 1.024 0 1.414z"></path>
    </symbol>

    <symbol id="icon-close" viewBox="0 0 32 32">
      <path d="M26.667 7.303l-1.97-1.97-7.808 7.808-7.808-7.808-1.97 1.97 7.808 7.808-7.808 7.808 1.97 1.97 7.808-7.808 7.808 7.808 1.97-1.97-7.808-7.808 7.808-7.808z">
      </path>
    </symbol>

    <symbol id="chevron-right">
      <path d="M9.16 4.52c.42.4 4.5 4.7 4.5 4.7a1.1 1.1 0 0 1 0 1.57s-4.08 4.29-4.5 4.7c-.41.4-1.17.43-1.61 0-.45-.44-.48-1.05 0-1.58L11.3 10 7.54 6.1c-.48-.54-.45-1.15 0-1.58s1.2-.41 1.61 0z"/>
    </symbol>

    <symbol id="menu" viewBox="0 0 20 20">
      <path d="M0 3h20v2H0V3zm0 6h20v2H0V9zm0 6h20v2H0v-2z"/>
    </symbol>

    <symbol id="close" viewBox="0 0 20 20">
      <path d="M10 8.59 2.93 1.52l-1.41 1.4L8.59 10l-7.07 7.07 1.4 1.41L10 11.41l7.07 7.07 1.41-1.4L11.41 10l7.07-7.07-1.4-1.42L10 8.6z"/>
    </symbol>

    <symbol id="review-points" viewBox="0 0 256 32">
      <path d="M144 16a16 16 0 1 1-32 0 16 16 0 0 1 32 0zM32 16a16 16 0 1 1-32 0 16 16 0 0 1 32 0zM256 16a16 16 0 1 1-32 0 16 16 0 0 1 32 0z"/>
    </symbol>

    <symbol id="points" viewBox="0 0 139 32">
      <path d="M85.33 16a16 16 0 1 1-32 0 16 16 0 0 1 32 0zM32 16a16 16 0 1 1-32 0 16 16 0 0 1 32 0zM138.67 16a16 16 0 1 1-32 0 16 16 0 0 1 32 0z"/>
    </symbol>

    <symbol id="rev-quots" viewBox="0 0 43 32">
      <path d="M32.01 0c1.93 0 3.75.52 5.47 1.56s3.1 2.54 4.18 4.49c1.03 1.95 1.54 4.25 1.54 6.9s-.64 5.22-1.93 7.73c-.43.91-1.2 2.08-2.31 3.52a63.37 63.37 0 0 1-3.22 3.7L31.7 32l-2.89-4.81a22.03 22.03 0 0 0 5.34-4.69c1.54-1.82 2.31-3.49 2.31-5 0-.78-.17-1.41-.51-1.89a8.36 8.36 0 0 1-5.02 1.63 6.6 6.6 0 0 1-3.8-1.24 8.56 8.56 0 0 1-2.95-3.12 7.37 7.37 0 0 1-1.16-3.9c0-1.52.45-2.97 1.35-4.36.86-1.39 2-2.52 3.41-3.38A8.13 8.13 0 0 1 32.02 0zM8.94 0c1.93 0 3.75.52 5.46 1.56s3.1 2.54 4.18 4.49a14.58 14.58 0 0 1 1.54 6.9c0 1.86-.23 3.53-.7 5a17.3 17.3 0 0 1-2.45 4.75 36.67 36.67 0 0 1-3.15 3.9c-.98 1.09-2.7 2.89-5.14 5.4l-2.9-4.81a22.03 22.03 0 0 0 5.34-4.69c1.55-1.82 2.32-3.49 2.32-5 0-.78-.17-1.41-.52-1.9a8.36 8.36 0 0 1-5.01 1.64A6.6 6.6 0 0 1 4.1 16a8.56 8.56 0 0 1-2.95-3.12A7.37 7.37 0 0 1 0 8.98C0 7.46.43 6 1.3 4.62s1.99-2.52 3.4-3.38A8.13 8.13 0 0 1 8.94 0z"/>
    </symbol>

    <symbol id="home" viewBox="0 0 32 32">
      <path fill="var(--color5, #d31342)" d="M31.6 15.43c.58-.6.52-1.5-.13-2.03L17.17 1.72a1.88 1.88 0 0 0-2.32.03L.5 14.02a1.35 1.35 0 0 0-.07 2.03l.36.35c.6.58 1.56.65 2.15.16l1.08-.9v13.12c0 .8.7 1.45 1.56 1.45h5.59c.86 0 1.56-.65 1.56-1.45V19.6h7.14v9.18c-.02.8.6 1.45 1.46 1.45h5.93c.86 0 1.56-.65 1.56-1.45V15.85l.66.54c.36.3 1.13.06 1.71-.54l.41-.42z"/>
    </symbol>
    
    <symbol id="arrow-right_1" viewBox="0 0 32 32">
      <path d="M16.222 3.867c-1.008 1.008-1.008 2.637 0 3.645l5.911 5.911h-19.555c-1.423 0-2.578 1.155-2.578 2.578s1.155 2.578 2.578 2.578h19.555l-5.911 5.911c-1.008 1.008-1.008 2.637 0 3.645 0.503 0.503 1.163 0.755 1.822 0.755s1.32-0.253 1.822-0.755l12.133-12.133-12.133-12.133c-1.008-1.008-2.637-1.008-3.645 0z"></path>
    </symbol>
    <symbol id="advantage-1" viewBox="0 0 32 32">
      <path fill="#fea5b9" d="M15.467 13.547h7.733c0.267 0 0.587 0 0.8 0.267 0.267 0.267 0.32 0.587 0.213 0.96-0.32 1.813-0.693 3.68-1.067 5.493-0.427 2.187-0.853 4.427-1.227 6.613-0.107 0.587-0.213 1.227-0.32 1.813-0.107 0.427-0.427 0.693-0.853 0.693h-10.56c-0.427 0-0.8-0.267-0.853-0.693-0.267-1.333-0.533-2.613-0.747-3.947-0.32-1.76-0.693-3.573-1.013-5.333-0.267-1.547-0.587-3.093-0.853-4.64-0.16-0.747 0.213-1.173 1.013-1.173 2.56-0.107 5.12-0.053 7.733-0.053zM9.547 20.32c0 0.16 0.053 0.213 0.053 0.32l1.28 6.72c0.053 0.16 0.107 0.213 0.267 0.213h8.693c0.16 0 0.267-0.053 0.267-0.213 0.267-1.547 0.587-3.040 0.853-4.587 0.16-0.8 0.32-1.6 0.48-2.453-1.76 1.493-3.733 2.080-5.92 2.080-2.24 0-4.213-0.587-5.973-2.080zM8.693 15.307v0.16c0 0.16 0.053 0.267 0.053 0.427 0.48 2.027 1.76 3.413 3.627 4.16 1.973 0.8 4 0.8 5.973 0.053 1.76-0.64 2.987-1.867 3.573-3.68 0.107-0.373 0.16-0.747 0.267-1.12h-13.493zM8.8 5.76c-0.16-0.373-0.373-0.747-0.48-1.067-0.107-0.373-0.16-0.747-0.16-1.173 0-0.48 0.373-0.853 0.853-0.853h12.907c0.48 0 0.853 0.373 0.853 0.853 0 0.693-0.107 1.387-0.533 1.973-0.053 0.053-0.107 0.16-0.107 0.16 0.213 0.32 0.48 0.587 0.64 0.907 0.427 0.8 0.32 1.813-0.267 2.507s-1.493 0.96-2.347 0.747c-0.427-0.107-0.747-0.373-1.067-0.693-0.107-0.107-0.16-0.107-0.32-0.053-0.32 0.16-0.587 0.267-0.907 0.373-0.107 0.053-0.16 0.107-0.16 0.267 0 0.533 0 1.013-0.16 1.493-0.427 1.28-1.973 1.92-3.147 1.28-0.853-0.48-1.227-1.173-1.28-2.133v-0.64c0-0.16-0.053-0.213-0.16-0.267-0.32-0.107-0.587-0.267-0.907-0.373-0.107-0.053-0.213-0.053-0.32 0.053-0.32 0.32-0.693 0.587-1.12 0.693-1.44 0.427-2.933-0.853-2.827-2.347 0.053-0.64 0.32-1.12 0.693-1.547 0.213-0.053 0.267-0.107 0.32-0.16zM20.853 4.427h-10.773c0.213 0.32 0.373 0.587 0.533 0.853 0.267 0.48 0.267 0.853-0.107 1.227-0.213 0.213-0.427 0.427-0.64 0.693-0.16 0.16-0.213 0.32-0.16 0.533 0.053 0.427 0.533 0.587 0.853 0.32 0.267-0.213 0.48-0.48 0.693-0.693 0.373-0.373 0.747-0.427 1.12-0.16 0.587 0.373 1.227 0.64 1.867 0.853 0.533 0.16 0.693 0.427 0.747 1.013v1.333c0 0.32 0.16 0.533 0.373 0.64 0.373 0.107 0.693-0.16 0.693-0.587v-1.333c0-0.64 0.16-0.907 0.8-1.067s1.227-0.427 1.813-0.8c0.427-0.267 0.8-0.213 1.173 0.16 0.213 0.213 0.427 0.427 0.587 0.64 0.16 0.16 0.32 0.213 0.48 0.213 0.213-0.053 0.373-0.16 0.427-0.32 0.107-0.213 0.053-0.427-0.107-0.587-0.213-0.267-0.48-0.48-0.693-0.747-0.107-0.107-0.213-0.267-0.267-0.373-0.107-0.32-0.053-0.587 0.107-0.853 0.107-0.373 0.32-0.64 0.48-0.96z"></path>
    </symbol>
    <symbol id="advantage-2" viewBox="0 0 32 32">
      <path fill="#fea5b9" d="M20.8 29.493h-13.387l-0.053-0.053c-0.32-0.16-0.48-0.427-0.533-0.8-0.107-0.48-0.213-1.013-0.267-1.493-0.267-1.44-0.587-2.933-0.853-4.373-0.16-0.907-0.373-1.813-0.533-2.72-0.32-1.707-0.64-3.36-0.96-5.067l-0.48-2.4c-0.053-0.16-0.053-0.373-0.053-0.533 0-0.32 0.16-0.587 0.427-0.747 0.107-0.053 0.107-0.107 0.107-0.213s0-0.213-0.053-0.32c0-0.48 0.053-0.907 0.267-1.333 0.16-0.373 0.427-0.64 0.693-0.907 0.533-0.533 1.173-0.853 1.92-1.013 0.213-0.053 0.213-0.053 0.107-0.213-0.107-0.32-0.267-0.64-0.373-0.96-0.267-0.8-0.32-1.653-0.213-2.507 0.053-0.267 0.107-0.48 0.267-0.693 0.267-0.267 0.587-0.427 1.013-0.16 0.373 0.213 0.533 0.48 0.48 0.907 0 0.16-0.053 0.373-0.053 0.533-0.053 0.64 0.053 1.227 0.32 1.813 0 0.053 0.053 0.053 0.053 0.107 0.053 0.053 0.053 0.053 0.107 0 0.053 0 0.053-0.053 0.107-0.053 0.16-0.16 0.32-0.32 0.48-0.427 0.427-0.373 0.907-0.693 1.493-0.853 0.587-0.213 1.12-0.213 1.707-0.053 0.533 0.16 1.013 0.427 1.44 0.853 0.16 0.16 0.373 0.373 0.533 0.587 0.107 0.107 0.16 0.16 0.32 0.16h0.64c0.427 0 0.8 0.053 1.173 0.213 0.053 0 0.107 0.053 0.213 0.053 0.053 0 0.107 0 0.107-0.053s0.053-0.16 0.053-0.213c0.053-0.32 0.107-0.587 0.213-0.907 0.213-0.8 0.587-1.493 1.12-2.133 0.16-0.16 0.32-0.32 0.48-0.427 0.107-0.053 0.267-0.107 0.373-0.16 0.213 0 0.427 0.107 0.587 0.213 0.16 0.053 0.267 0.32 0.267 0.587s-0.107 0.48-0.267 0.64l-0.213 0.213c-0.48 0.587-0.693 1.227-0.853 1.973v0.053h0.053c0.053 0 0.107 0 0.16-0.053 0.373-0.107 0.693-0.16 1.067-0.213 0.587 0 1.173 0.053 1.707 0.32 0.587 0.267 1.067 0.64 1.333 1.227 0.373 0.693 0.533 1.387 0.48 2.133 0 0.32-0.053 0.587-0.053 0.907 0 0.213 0 0.213 0.213 0.267 0.053 0 0.107 0 0.16 0.053 0.16 0.053 0.267 0.107 0.373 0.213 0.213 0.213 0.32 0.533 0.267 0.8-0.107 0.693-0.267 1.333-0.373 2.027-0.32 1.707-0.64 3.413-1.013 5.12l-0.16 0.8c-0.053 0.16 0 0.16 0.107 0.213 0.16 0.053 0.373 0.107 0.533 0.16h0.107c0.053 0 0.107 0 0.107-0.053s0.053-0.16 0.053-0.213c0.107-0.64 0.32-1.28 0.587-1.867 0.213-0.427 0.48-0.8 0.853-1.12 0.213-0.213 0.48-0.32 0.8-0.267 0.533 0.107 0.907 0.693 0.64 1.227-0.053 0.107-0.16 0.213-0.267 0.32-0.107 0.16-0.213 0.267-0.32 0.373-0.32 0.427-0.48 0.96-0.587 1.44v0.107h0.16c0.427-0.16 0.907-0.213 1.387-0.16 0.373 0 0.693 0.053 1.013 0.213 0.8 0.267 1.387 0.8 1.707 1.6 0.32 0.747 0.373 1.547 0.267 2.347-0.053 0.693-0.267 1.387-0.587 2.027s-0.693 1.227-1.227 1.707c-0.427 0.373-0.907 0.64-1.493 0.8s-1.12 0.16-1.707 0.053c-0.267-0.053-0.48-0.053-0.747-0.053-0.267 0.053-0.533 0-0.8 0.053-0.48 0.053-0.96 0-1.387-0.16-0.267-0.107-0.48-0.16-0.747-0.267-0.16-0.053-0.16-0.053-0.213 0.107-0.053 0.213-0.16 0.373-0.373 0.48 0.16 0.107 0.053 0.16 0 0.213zM14.187 13.013h-8.32c-0.053 0-0.107 0.053-0.107 0.107v0.16c0.053 0.267 0.107 0.587 0.16 0.853 0.213 0.747 0.533 1.44 0.96 2.133 0.587 0.853 1.333 1.493 2.187 2.027 0.64 0.373 1.28 0.64 1.973 0.853 0.8 0.267 1.547 0.373 2.4 0.427 0.693 0.053 1.333 0 2.027-0.053 1.173-0.16 2.293-0.427 3.36-1.013 0.747-0.427 1.387-0.907 1.973-1.547 0.373-0.427 0.693-0.907 0.96-1.387 0.373-0.693 0.587-1.387 0.693-2.133 0-0.107 0.053-0.213 0.053-0.267 0-0.107 0-0.107-0.107-0.107h-0.213c-2.613-0.053-5.28-0.053-8-0.053zM6.72 18.667c-0.053 0.053-0.053 0.107 0 0.16 0.107 0.64 0.267 1.28 0.373 1.92 0.16 0.907 0.373 1.813 0.533 2.72 0.267 1.333 0.533 2.667 0.747 4 0.053 0.267 0 0.267 0.32 0.267h10.987c0.107 0 0.107 0 0.16-0.107 0.053-0.16 0.053-0.267 0.107-0.427 0.053-0.213 0-0.373-0.107-0.533-0.107-0.213-0.16-0.427-0.267-0.64-0.267-0.8-0.427-1.6-0.373-2.453 0.053-0.427 0.107-0.853 0.267-1.28 0.213-0.533 0.533-0.96 1.067-1.28 0.16-0.107 0.32-0.16 0.48-0.267 0.107-0.053 0.16-0.107 0.16-0.213 0.107-0.533 0.213-1.013 0.32-1.547v-0.107h-0.053c-0.053 0.053-0.107 0.107-0.16 0.107-0.64 0.533-1.387 0.96-2.133 1.333-1.44 0.64-2.933 0.96-4.48 1.013-0.693 0-1.44 0-2.133-0.107-0.747-0.107-1.44-0.267-2.133-0.48-1.333-0.427-2.507-1.12-3.52-2.027-0.053 0-0.107 0-0.16-0.053zM28.533 24v-0.213c0-0.32-0.053-0.587-0.16-0.907-0.107-0.267-0.267-0.427-0.533-0.533-0.107-0.053-0.213-0.053-0.32-0.107-0.427-0.107-0.853-0.053-1.28 0.16-0.267 0.16-0.48 0.32-0.64 0.587-0.107 0.16-0.213 0.267-0.32 0.373-0.32 0.213-0.64 0.267-0.96 0-0.16-0.107-0.267-0.213-0.373-0.373-0.213-0.32-0.48-0.587-0.907-0.693-0.373-0.107-0.747-0.107-1.12-0.053-0.427 0.053-0.693 0.32-0.8 0.693-0.16 0.48-0.213 1.013-0.16 1.493 0.107 0.8 0.427 1.493 0.853 2.133 0.32 0.427 0.747 0.747 1.28 0.853 0.373 0.107 0.8 0.053 1.173-0.053 0.267-0.107 0.533-0.107 0.853 0 0.16 0.053 0.373 0.107 0.533 0.107 0.693 0.053 1.333-0.16 1.76-0.693 0.747-0.747 1.12-1.707 1.12-2.773zM13.28 11.2c0 0.053 0 0.053 0 0h0.427c0.16 0 0.213-0.053 0.267-0.213 0.053-0.213 0.053-0.427 0.107-0.64 0.053-0.533-0.107-1.067-0.213-1.6-0.16-0.533-0.373-1.013-0.747-1.44-0.213-0.213-0.373-0.427-0.64-0.587-0.16-0.107-0.373-0.16-0.587-0.16-0.533 0.053-0.96 0.267-1.333 0.64-0.32 0.373-0.48 0.8-0.48 1.333 0 0.107 0 0.213-0.053 0.267-0.107 0.427-0.427 0.747-0.853 0.693-0.16 0-0.267-0.053-0.427-0.107-0.267-0.107-0.533-0.16-0.8-0.16-0.747 0-1.28 0.32-1.707 0.907-0.16 0.267-0.213 0.587-0.16 0.853 0.053 0.107 0.107 0.213 0.213 0.213h6.987zM15.467 8.16c0 0.053 0 0.107 0.053 0.16 0.053 0.16 0.107 0.32 0.107 0.48 0.16 0.693 0.213 1.387 0.107 2.080 0 0.053 0 0.107-0.053 0.213 0 0.107 0 0.107 0.107 0.107h5.707c0.16 0 0.16 0 0.213-0.16 0.053-0.267 0.053-0.48 0.107-0.747 0.053-0.48 0-0.907-0.213-1.387-0.107-0.267-0.32-0.48-0.64-0.587-0.16-0.053-0.32-0.107-0.48-0.107-0.693-0.107-1.28 0.053-1.76 0.587-0.107 0.107-0.16 0.213-0.267 0.32s-0.213 0.267-0.32 0.32c-0.32 0.213-0.693 0.213-0.96-0.053l-0.32-0.32c-0.32-0.427-0.747-0.747-1.28-0.853 0.053-0.053 0-0.053-0.107-0.053z"></path>
    </symbol>
    <symbol id="advantage-3" viewBox="0 0 32 32">
      <path fill="#fea5b9" d="M13.653 29.333v-7.467c0-0.213-0.053-0.32-0.213-0.427-1.6-1.067-3.147-2.24-4.587-3.52-1.387-1.28-2.667-2.72-3.573-4.427-1.173-2.293-1.387-4.64-0.373-7.040 0.8-1.867 2.187-3.2 4.267-3.627 2.027-0.48 3.84 0.053 5.387 1.493 0.32 0.267 0.587 0.587 0.853 0.907 0.373 0.427 0.853 0.427 1.227 0 0.533-0.693 1.173-1.333 1.973-1.76 1.227-0.693 2.507-0.96 3.84-0.693 2.507 0.427 4.107 1.973 4.907 4.32 0.747 2.24 0.48 4.373-0.64 6.453-0.907 1.707-2.133 3.093-3.573 4.373-1.44 1.333-2.987 2.453-4.587 3.52-0.16 0.107-0.213 0.213-0.213 0.427v7.467h-4.693zM12.16 11.947c-0.053 0-0.053 0 0 0-0.053 0.267-0.053 0.533-0.053 0.747 0 0.533 0.32 0.907 0.8 0.907 0.427 0 0.747-0.373 0.747-0.853v-1.493c0.053-1.173 0.853-2.133 1.92-2.293 1.44-0.213 2.72 0.8 2.773 2.293v1.547c0 0.373 0.16 0.64 0.48 0.747 0.533 0.213 1.013-0.16 1.067-0.747v-1.547c0.053-1.013 0.48-1.707 1.387-2.133 0.907-0.373 1.707-0.267 2.453 0.373 0.533 0.427 0.747 1.013 0.8 1.707 0.053 0.48 0.32 0.8 0.747 0.8 0.213 0 0.373-0.053 0.427-0.267 0.107-0.427 0.267-0.907 0.32-1.333 0.213-1.867-0.16-3.52-1.493-4.907-1.387-1.44-3.627-1.707-5.333-0.587-0.48 0.32-0.907 0.693-1.227 1.173-1.013 1.387-2.987 1.387-3.947 0-0.053-0.107-0.107-0.16-0.213-0.267-0.533-0.587-1.12-1.067-1.867-1.333-2.080-0.693-4.32 0.16-5.333 2.133-0.853 1.653-0.907 3.307-0.373 5.067 0.107 0.32 0.267 0.373 0.587 0.32 0.373-0.107 0.533-0.373 0.587-0.853 0.107-1.173 0.96-2.080 2.133-2.24 1.12-0.107 2.187 0.587 2.453 1.707 0.107 0.48 0.107 0.907 0.16 1.333zM7.2 13.6c0.587 0.907 1.28 1.707 2.080 2.507 1.6 1.6 3.467 2.987 5.333 4.213 0.907 0.587 1.867 0.587 2.773 0l1.12-0.8c1.813-1.28 3.52-2.613 5.013-4.32 0.48-0.533 0.907-1.12 1.333-1.653-0.053-0.053-0.053-0.053-0.107-0.053-1.12-0.373-1.707-1.12-1.76-2.293 0-0.32-0.213-0.533-0.48-0.693-0.533-0.213-1.013 0.16-1.067 0.747v1.6c-0.053 1.28-1.067 2.293-2.347 2.293s-2.293-1.013-2.347-2.293v-1.547c0-0.16-0.053-0.373-0.107-0.533-0.16-0.267-0.533-0.427-0.853-0.32s-0.587 0.373-0.587 0.747v1.547c0 1.173-0.853 2.133-1.92 2.293-1.493 0.267-2.72-0.8-2.773-2.293v-1.547c0-0.32-0.16-0.587-0.427-0.693s-0.533-0.107-0.8 0.107c-0.213 0.16-0.267 0.427-0.267 0.693 0 0.64-0.267 1.227-0.8 1.653-0.32 0.32-0.693 0.48-1.013 0.64zM15.253 22.347v5.387h1.493v-5.387h-1.493z"></path>
    </symbol>
    <symbol id="rev-3-dots" viewBox="0 0 256 32">
      <path d="M144 16c0 8.837-7.163 16-16 16s-16-7.163-16-16c0-8.837 7.163-16 16-16s16 7.163 16 16z"></path>
      <path d="M32 16c0 8.837-7.163 16-16 16s-16-7.163-16-16c0-8.837 7.163-16 16-16s16 7.163 16 16z"></path>
      <path d="M256 16c0 8.837-7.163 16-16 16s-16-7.163-16-16c0-8.837 7.163-16 16-16s16 7.163 16 16z"></path>
    </symbol>
    <symbol id="rev-dot" viewBox="0 0 32 32">
      <path d="M32 16c0 8.837-7.163 16-16 16s-16-7.163-16-16c0-8.837 7.163-16 16-16s16 7.163 16 16z"></path>
    </symbol>
    <symbol id="rev-home" viewBox="0 0 32 32">
      <path d="M31.599 16.766c0.58-0.595 0.524-1.507-0.125-2.037l-14.301-11.673c-0.649-0.53-1.69-0.518-2.325 0.025l-14.35 12.27c-0.635 0.543-0.667 1.454-0.069 2.034l0.36 0.35c0.597 0.579 1.562 0.648 2.154 0.154l1.072-0.896v13.116c0 0.805 0.699 1.456 1.561 1.456h5.594c0.862 0 1.561-0.651 1.561-1.456v-9.176h7.135v9.176c-0.012 0.804 0.604 1.455 1.466 1.455h5.928c0.862 0 1.561-0.651 1.561-1.456v-12.93c0 0 0.296 0.242 0.662 0.542s1.131 0.059 1.711-0.536l0.407-0.417z"></path>
    </symbol>
    <symbol id="icon-facebook" viewBox="0 0 16 32">
      <path d="M14.266 15.97h-4.176v15.39h-6.327v-15.39h-3.009v-5.409h3.009v-3.5c0-2.503 1.182-6.422 6.384-6.422l4.687 0.020v5.25h-3.401c-0.558 0-1.342 0.28-1.342 1.474v3.183h4.729l-0.553 5.403z"></path>
    </symbol>
    <symbol id="icon-telegram" viewBox="0 0 40 32">
      <path d="M16.205 20.751l-0.635 8.339c0.909 0 1.302-0.364 1.774-0.802l4.261-3.801 8.829 6.035c1.619 0.842 2.76 0.399 3.197-1.39l5.797-25.346c0.514-2.234-0.866-3.108-2.443-2.56l-34.065 12.172c-2.325 0.842-2.29 2.052-0.395 2.6l8.709 2.528 20.229-11.814c0.952-0.588 1.818-0.263 1.106 0.326l-16.364 13.713z"></path>
    </symbol>
    <symbol id="icon-git" viewBox="0 0 32 32">
      <path fill="#fff" style="fill: var(--color1, #fff)" d="M16 0.941c-8.271 0-15.059 6.788-15.059 15.059 0 7.058 4.953 13.47 11.529 15.059v-4.982c-0.652 0.143-1.251 0.147-1.915-0.049-0.89-0.263-1.613-0.855-2.15-1.759-0.342-0.577-0.949-1.203-1.581-1.157l-0.155-1.758c1.368-0.117 2.551 0.833 3.254 2.014 0.312 0.525 0.671 0.832 1.132 0.968 0.446 0.131 0.924 0.068 1.481-0.129 0.14-1.116 0.651-1.534 1.037-2.122-3.922-0.585-5.486-2.667-6.106-4.309-0.822-2.181-0.381-4.905 1.073-6.627 0.028-0.034 0.079-0.121 0.060-0.183-0.667-2.014 0.146-3.679 0.176-3.856 0.769 0.228 0.894-0.229 3.342 1.258l0.423 0.254c0.177 0.105 0.121 0.045 0.298 0.032 1.022-0.278 2.099-0.431 3.16-0.445 1.069 0.014 2.14 0.167 3.204 0.456l0.137 0.014c-0.012-0.002 0.037-0.009 0.12-0.058 3.057-1.852 2.947-1.247 3.767-1.513 0.030 0.177 0.831 1.87 0.172 3.858-0.089 0.274 2.65 2.782 1.132 6.809-0.62 1.643-2.184 3.724-6.106 4.309 0.503 0.766 1.107 1.175 1.104 2.756v6.219c6.577-1.589 11.529-8.001 11.529-15.059 0-8.271-6.787-15.059-15.059-15.059z"></path>
    </symbol>



  </defs>
</svg>
